# xmcd
#
# Track frame offsets:
#	150
#	16247
#	28084
#	43170
#	57249
#	72991
#	99543
#	114373
#	129892
#	145592
#	159594
#	174843
#	188095
#	203135
#	218849
#
# Disc length: 3132 seconds
#
# Revision: 0
# Processed by: cddbd v1.5.2PL0 Copyright (c) Steve Scherf et al.
# Submitted via: EasyCDDAExtractor 16.0.6.1
#
DISCID=c80c3a0f
DTITLE=Πουλόπουλος Γιάννης - Ο Γιάννης Πουλόπουλος τραγουδά Μ. Θεοδωράκη
DYEAR=1996
DGENRE=Έντεχνη λαϊκή
TTITLE0=Στρώσε το στρώμα σου για δυό [Ιάκ. Καμπανέλλη]
TTITLE1=Είναι μακρύς ο δρόμος σου [Πάνου Κοκκινόπουλου]
TTITLE2=Γωνιά-γωνιά [Δημ. Χριστοδούλου]
TTITLE3=Χρυσοπράσινο φύλλο [Λεων. Μανέλη]
TTITLE4=Τι να την κάνω την χαρά [Νότη Περγιάλη]
TTITLE5=Το όνειρο [Μ. Θεοδωράκη]
TTITLE6=Το ψωμί είναι στο τραπέζι [Ιάκ. Καμπανέλλη]
TTITLE7=Βρέχει στη φτωχογειτονιά [Τάσου Λειβαδίτη]
TTITLE8=Ο καϋμός [Δημ. Χριστοδούλου]
TTITLE9=Τ' όνειρο καπνός [Νίκου Γκάτσου]
TTITLE10=Το τραγούδι της ξενητειάς [Ερρίκου Θαλασσινού]
TTITLE11=Βραδιάζει [Δημ. Χριστοδούλου]
TTITLE12=Στράτα τη στράτα [Νίκου Γκάτσου]
TTITLE13=Από το παράθυρό σου [Ιάκ. Καμπανέλλη]
TTITLE14=Βράχο βράχο τον καϋμό μου [Δημ. Χριστοδούλου]
EXTD=
EXTT0=
EXTT1=
EXTT2=
EXTT3=
EXTT4=
EXTT5=
EXTT6=
EXTT7=
EXTT8=
EXTT9=
EXTT10=
EXTT11=
EXTT12=
EXTT13=
EXTT14=
PLAYORDER=
